<?xml version="1.0" encoding="utf-8"?>
<svg version="1.1" id="Layer_1" xmlns="http://www.w3.org/2000/svg" viewBox="0 0 32 32">
    <path fill="#22B573" d="M26.40002,16.64999L26.40002,16.64999c-0.20001-0.5-0.5-1-0.70001-1.39999
	C24.5,13.35,22.80002,11.74999,20.60001,10.85H28c0-5.60001-5.20001-10.8-11.60001-10.8s-11.60001,5.2-11.60001,11.3
	c0,1.5,0.29999,2.8,0.79999,4.10001l0,0l0,0c0.20001,0.5,0.39999,0.89999,0.70001,1.3C7.5,18.65,9.19998,20.25001,11.39999,21.15H4
	c0,5.60001,5.20001,10.8,11.60001,10.8s11.60001-5.2,11.60001-11.3C27.30002,19.24998,27.00003,17.94997,26.40002,16.64999
	L26.40002,16.64999z"/>
</svg>
